<svg xmlns="http://www.w3.org/2000/svg" width="374.9381103515625" height="426.37896728515625" viewBox="-79.18486022949219 -104.82801055908203 374.9381103515625 426.37896728515625"><title>Neo4j Graph Visualization</title><desc>Created using Neo4j (http://www.neo4j.com/)</desc><g class="layer relationships"><g class="relationship" transform="translate(126.92790729984316 292.55097080148204) rotate(327.9359983165863)"><path class="outline" fill="#A5ABB6" stroke="none" d="M 24.018736134675446,-6.953439040707552 L 24.277555179777966,-5.987513214418485 A 110.12347324907938 110.12347324907938 0 0 1 41.45519537497822,-9.156066050906219 L 41.352361604298956,-10.150764606051396 A 111.12347324907938 111.12347324907938 0 0 0 24.018736134675446,-6.953439040707552 Z M 60.74861151526805,-10.4537704189935 L 60.676898456696456,-9.456345114907862 A 110.12347324907938 110.12347324907938 0 0 1 77.94512985727457,-6.825901416696153 L 77.25956695922983,-3.905284442010067 L 84.87416328121623,-5.713024150372787 L 78.85921372133421,-10.720057382944267 L 78.17365082328948,-7.799440408258182 A 111.12347324907938 111.12347324907938 0 0 0 60.74861151526805,-10.4537704189935"/><text text-anchor="middle" pointer-events="none" font-size="8px" fill="#000000" x="51.05167200888098" y="-7.226383598850703" font-family="sans-serif">trek</text></g><g class="relationship" transform="translate(219.48077187614686 234.57366857908207) rotate(294.4530627489614)"><path class="outline" fill="#A5ABB6" stroke="none" d="M 21.40063509461097,-12.933012701892217 L 21.90063509461097,-12.06698729810778 A 66.90393925768113 66.90393925768113 0 0 1 43.86695568624623,-20.037150342744226 L 43.69528195276145,-21.022304203433706 A 67.90393925768113 67.90393925768113 0 0 0 21.40063509461097,-12.933012701892217 Z M 63.09971348994168,-21.587037154562665 L 62.98562425077263,-20.593566648958287 A 66.90393925768113 66.90393925768113 0 0 1 85.37828875406244,-13.91439636098899 L 84.03192480163656,-11.23348157166648 L 91.85815058788594,-11.219699603549017 L 87.17344069063029,-17.488949413419004 L 85.82707673820441,-14.808034624096495 A 67.90393925768113 67.90393925768113 0 0 0 63.09971348994168,-21.587037154562665"/><text text-anchor="middle" pointer-events="none" font-size="8px" fill="#000000" x="53.39175804597075" y="-18.501888032350905" font-family="sans-serif">trek</text></g><g class="relationship" transform="translate(266.7532244452916 130.61814296590407) rotate(197.51386731473247)"><path class="outline" fill="#A5ABB6" stroke="none" d="M 21.40063509461097,12.933012701892217 L 21.90063509461097,12.06698729810778 A 70.43307496107349 70.43307496107349 0 0 0 45.57711482570936,20.551412412451654 L 45.41327052733369,21.537898624159553 A 71.43307496107349 71.43307496107349 0 0 1 21.40063509461097,12.933012701892217 Z M 64.81750508608263,22.086977612481135 L 64.70970722752578,21.092804779574024 A 70.43307496107349 70.43307496107349 0 0 0 88.82808226900664,13.960824175527632 L 87.47739966521355,11.282082585935477 L 95.30359307868719,11.255688364942442 L 90.62899240739743,17.532479628317173 L 89.27830980360434,14.853738038725018 A 71.43307496107349 71.43307496107349 0 0 1 64.81750508608263,22.086977612481135"/><text text-anchor="middle" pointer-events="none" font-size="8px" fill="#000000" x="55.11079209885264" y="24.974848618610437" transform="rotate(180 55.11079209885264 21.974848618610437)" font-family="sans-serif">trek</text></g><g class="relationship" transform="translate(154.5794592146442 95.22003989888928) rotate(536.6300464104285)"><path class="outline" fill="#A5ABB6" stroke="none" d="M 25 0.5 L 57.10804706433491 0.5 L 57.10804706433491 -0.5 L 25 -0.5 Z M 76.44398456433491 0.5 L 108.55203162866982 0.5 L 108.55203162866982 3.5 L 115.55203162866982 0 L 108.55203162866982 -3.5 L 108.55203162866982 -0.5 L 76.44398456433491 -0.5 Z"/><text text-anchor="middle" pointer-events="none" font-size="8px" fill="#000000" x="66.77601581433491" y="3" transform="rotate(180 66.77601581433491 0)" font-family="sans-serif">trek</text></g><g class="relationship" transform="translate(126.92790729984316 292.55097080148204) rotate(327.9359983165863)"><path class="outline" fill="#A5ABB6" stroke="none" d="M 24.018736134675446,6.953439040707552 L 24.277555179777966,5.987513214418485 A 110.12347324907938 110.12347324907938 0 0 0 40.13127297145587,9.011099966168146 L 40.01641703724997,10.004482125449101 A 111.12347324907938 111.12347324907938 0 0 1 24.018736134675446,6.953439040707552 Z M 62.088473484003586,10.3492890565647 L 62.00470300921235,9.352803980131924 A 110.12347324907938 110.12347324907938 0 0 0 77.94512985727457,6.825901416696153 L 77.25956695922983,3.905284442010067 L 84.87416328121623,5.713024150372787 L 78.85921372133421,10.720057382944267 L 78.17365082328948,7.799440408258182 A 111.12347324907938 111.12347324907938 0 0 1 62.088473484003586,10.3492890565647"/><text text-anchor="middle" pointer-events="none" font-size="8px" fill="#000000" x="51.05167200888097" y="13.226383598850703" font-family="sans-serif">road</text></g><g class="relationship" transform="translate(219.48077187614686 234.57366857908207) rotate(294.4530627489614)"><path class="outline" fill="#A5ABB6" stroke="none" d="M 25 0.5 L 42.59369420778676 0.5 L 42.59369420778676 -0.5 L 25 -0.5 Z M 64.60541295778677 0.5 L 82.19910716557352 0.5 L 82.19910716557352 3.5 L 89.19910716557352 0 L 82.19910716557352 -3.5 L 82.19910716557352 -0.5 L 64.60541295778677 -0.5 Z"/><text text-anchor="middle" pointer-events="none" font-size="8px" fill="#000000" x="53.59955358278676" y="3" font-family="sans-serif">road</text></g><g class="relationship" transform="translate(219.48077187614686 234.57366857908207) rotate(294.4530627489614)"><path class="outline" fill="#A5ABB6" stroke="none" d="M 21.40063509461097,12.933012701892217 L 21.90063509461097,12.06698729810778 A 66.90393925768113 66.90393925768113 0 0 0 30.924144628660944,16.41120495848513 L 30.55901724803386,17.342162527827796 A 67.90393925768113 67.90393925768113 0 0 1 21.40063509461097,12.933012701892217 Z M 76.42777138071646,18.677094542523804 L 76.11740401635356,17.726477848404436 A 66.90393925768113 66.90393925768113 0 0 0 85.37828875406244,13.91439636098899 L 84.03192480163656,11.23348157166648 L 91.85815058788594,11.219699603549017 L 87.17344069063029,17.488949413419004 L 85.82707673820441,14.808034624096495 A 67.90393925768113 67.90393925768113 0 0 1 76.42777138071646,18.677094542523804"/><text text-anchor="middle" pointer-events="none" font-size="8px" fill="#000000" x="53.391758045970754" y="24.501888032350905" font-family="sans-serif">twowheeler</text></g><g class="relationship" transform="translate(266.7532244452916 130.61814296590407) rotate(197.51386731473247)"><path class="outline" fill="#A5ABB6" stroke="none" d="M 25 0.5 L 32.08079795431092 0.5 L 32.08079795431092 -0.5 L 25 -0.5 Z M 78.54564170431092 0.5 L 85.62643965862183 0.5 L 85.62643965862183 3.5 L 92.62643965862183 0 L 85.62643965862183 -3.5 L 85.62643965862183 -0.5 L 78.54564170431092 -0.5 Z"/><text text-anchor="middle" pointer-events="none" font-size="8px" fill="#000000" x="55.31321982931092" y="3" transform="rotate(180 55.31321982931092 0)" font-family="sans-serif">twowheeler</text></g><g class="relationship" transform="translate(266.7532244452916 130.61814296590407) rotate(197.51386731473247)"><path class="outline" fill="#A5ABB6" stroke="none" d="M 21.40063509461097,-12.933012701892217 L 21.90063509461097,-12.06698729810778 A 70.43307496107349 70.43307496107349 0 0 1 44.268737703383856,-20.321406149483252 L 44.08631723006411,-21.304626761001245 A 71.43307496107349 71.43307496107349 0 0 0 21.40063509461097,-12.933012701892217 Z M 66.15552622937884,-21.929116168904102 L 66.02899725580242,-20.93715325687276 A 70.43307496107349 70.43307496107349 0 0 1 88.82808226900664,-13.960824175527632 L 87.47739966521355,-11.282082585935477 L 95.30359307868719,-11.255688364942442 L 90.62899240739743,-17.532479628317173 L 89.27830980360434,-14.853738038725018 A 71.43307496107349 71.43307496107349 0 0 0 66.15552622937884,-21.929116168904102"/><text text-anchor="middle" pointer-events="none" font-size="8px" fill="#000000" x="55.11079209885263" y="-18.974848618610437" transform="rotate(180 55.11079209885263 -21.974848618610437)" font-family="sans-serif">road</text></g><g class="relationship" transform="translate(126.92790729984316 292.55097080148204) rotate(264.6461734505236)"><path class="outline" fill="#A5ABB6" stroke="none" d="M 21.40063509461097,12.933012701892217 L 21.90063509461097,12.06698729810778 A 63.819486025279545 63.819486025279545 0 0 0 22.672981860061324,12.505763731807953 L 22.18508391248375,13.378664409290558 A 64.81948602527955 64.81948602527955 0 0 1 21.40063509461097,12.933012701892217 Z M 82.00501780282183,15.164017574478052 L 81.57004613882907,14.263573433221431 A 63.819486025279545 63.819486025279545 0 0 0 82.36718584722264,13.871639037978422 L 81.02479924157088,11.188730504135586 L 88.85103686046456,11.186555047098093 L 84.15703465475833,17.448850416435537 L 82.81464804910657,14.7659418825927 A 64.81948602527955 64.81948602527955 0 0 1 82.00501780282183,15.164017574478052"/><text text-anchor="middle" pointer-events="none" font-size="8px" fill="#000000" x="51.89158815179472" y="24.08854996258158" transform="rotate(180 51.89158815179472 21.08854996258158)" font-family="sans-serif">PublicTransport</text></g><g class="relationship" transform="translate(116.55147907858392 181.82751246816855) rotate(293.7055230344174)"><path class="outline" fill="#A5ABB6" stroke="none" d="M 25 0.5 L 34.12627397061837 0.5 L 34.12627397061837 -0.5 L 25 -0.5 Z M 53.46221147061837 0.5 L 62.58848544123674 0.5 L 62.58848544123674 3.5 L 69.58848544123674 0 L 62.58848544123674 -3.5 L 62.58848544123674 -0.5 L 53.46221147061837 -0.5 Z"/><text text-anchor="middle" pointer-events="none" font-size="8px" fill="#000000" x="43.79424272061837" y="3" font-family="sans-serif">trek</text></g><g class="relationship" transform="translate(126.92790729984316 292.55097080148204) rotate(264.6461734505236)"><path class="outline" fill="#A5ABB6" stroke="none" d="M 25 0.5 L 41.098444612910754 0.5 L 41.098444612910754 -0.5 L 25 -0.5 Z M 63.110163362910754 0.5 L 79.20860797582151 0.5 L 79.20860797582151 3.5 L 86.20860797582151 0 L 79.20860797582151 -3.5 L 79.20860797582151 -0.5 L 63.110163362910754 -0.5 Z"/><text text-anchor="middle" pointer-events="none" font-size="8px" fill="#000000" x="52.104303987910754" y="3" transform="rotate(180 52.104303987910754 0)" font-family="sans-serif">road</text></g><g class="relationship" transform="translate(126.92790729984316 292.55097080148204) rotate(264.6461734505236)"><path class="outline" fill="#A5ABB6" stroke="none" d="M 21.40063509461097,-12.933012701892217 L 21.90063509461097,-12.06698729810778 A 63.819486025279545 63.819486025279545 0 0 1 42.375493928767774,-19.584395312351617 L 42.19631849363573,-20.5682124515829 A 64.81948602527955 64.81948602527955 0 0 0 21.40063509461097,-12.933012701892217 Z M 61.60063281349458,-21.147343047961726 L 61.48044897397438,-20.15459139486908 A 63.819486025279545 63.819486025279545 0 0 1 82.36718584722264,-13.871639037978422 L 81.02479924157088,-11.188730504135586 L 88.85103686046456,-11.186555047098093 L 84.15703465475833,-17.448850416435537 L 82.81464804910657,-14.7659418825927 A 64.81948602527955 64.81948602527955 0 0 0 61.60063281349458,-21.147343047961726"/><text text-anchor="middle" pointer-events="none" font-size="8px" fill="#000000" x="51.89158815179473" y="-18.08854996258158" transform="rotate(180 51.89158815179473 -21.08854996258158)" font-family="sans-serif">trek</text></g><g class="relationship" transform="translate(116.55147907858392 181.82751246816855) rotate(265.2916351693985)"><path class="outline" fill="#A5ABB6" stroke="none" d="M 24.018736134675446,-6.953439040707552 L 24.277555179777966,-5.987513214418485 A 177.04696519640447 177.04696519640447 0 0 1 58.326802883544744,-11.62831849909955 L 58.26030143996674,-12.626104827930533 A 178.04696519640447 178.04696519640447 0 0 0 24.018736134675446,-6.953439040707552 Z M 77.63969269526342,-12.860559151582066 L 77.59734987275738,-11.861456011069436 A 177.04696519640447 177.04696519640447 0 0 1 111.77309819802642,-7.046045347374915 L 111.0669734163632,-4.130331405178071 L 118.69411819342959,-5.884373180526866 L 112.71459790691071,-10.933663936970708 L 112.00847312524749,-8.017949994773863 A 178.04696519640447 178.04696519640447 0 0 0 77.63969269526342,-12.860559151582066"/><text text-anchor="middle" pointer-events="none" font-size="8px" fill="#000000" x="67.95285321267004" y="-9.50725038699565" transform="rotate(180 67.95285321267004 -12.50725038699565)" font-family="sans-serif">trek</text></g><g class="relationship" transform="translate(104.81414402802093 39.31831604051805) rotate(200.9580445945449)"><path class="outline" fill="#A5ABB6" stroke="none" d="M 24.018736134675446,-6.953439040707552 L 24.277555179777966,-5.987513214418485 A 95.74050453744236 95.74050453744236 0 0 1 37.870570942409984,-8.594025998530384 L 37.75372958823676,-9.587176590311387 A 96.74050453744236 96.74050453744236 0 0 0 24.018736134675446,-6.953439040707552 Z M 57.1547592771917,-9.910282354462524 L 57.071053510159395,-8.913791840425617 A 95.74050453744236 95.74050453744236 0 0 1 70.7433250426999,-6.761356578359988 L 70.0637912130314,-3.8393309497358885 L 77.67464048110088,-5.662781913904169 L 71.64937014892458,-10.657390749858786 L 70.96983631925607,-7.735365121234687 A 96.74050453744236 96.74050453744236 0 0 0 57.1547592771917,-9.910282354462524"/><text text-anchor="middle" pointer-events="none" font-size="8px" fill="#000000" x="47.45444896796679" y="-6.736448061939967" transform="rotate(180 47.45444896796679 -9.736448061939967)" font-family="sans-serif">trek</text></g><g class="relationship" transform="translate(9.53898959728943 2.8256346820627174) rotate(447.30872180435773)"><path class="outline" fill="#A5ABB6" stroke="none" d="M 24.018736134675446,6.953439040707552 L 24.277555179777966,5.987513214418485 A 93.21741611078471 93.21741611078471 0 0 0 37.243991487247925,8.493369584753424 L 37.12427130208441,9.486177258607938 A 94.21741611078471 94.21741611078471 0 0 1 24.018736134675446,6.953439040707552 Z M 56.526155273437105,9.813075236309587 L 56.43994873324297,8.816797949392054 A 93.21741611078471 93.21741611078471 0 0 0 69.4834425304005,6.749177039279329 L 68.80504640212165,3.8268870651090254 L 76.41518515817768,5.6533010689904 L 70.38797070143896,10.6455636715064 L 69.70957457316011,7.723273697336096 A 94.21741611078471 94.21741611078471 0 0 1 56.526155273437105,9.813075236309587"/><text text-anchor="middle" pointer-events="none" font-size="8px" fill="#000000" x="46.82519822629086" y="12.650520168227033" font-family="sans-serif">trek</text></g><g class="relationship" transform="translate(116.55147907858392 181.82751246816855) rotate(265.2916351693985)"><path class="outline" fill="#A5ABB6" stroke="none" d="M 24.018736134675446,6.953439040707552 L 24.277555179777966,5.987513214418485 A 177.04696519640447 177.04696519640447 0 0 0 44.87796196980358,10.214374691152955 L 44.73549852993368,11.20417475596426 A 178.04696519640447 178.04696519640447 0 0 1 24.018736134675446,6.953439040707552 Z M 91.19493742260396,11.766246917020027 L 91.07646162747247,10.773289976378607 A 177.04696519640447 177.04696519640447 0 0 0 111.77309819802642,7.046045347374915 L 111.0669734163632,4.130331405178071 L 118.69411819342959,5.884373180526866 L 112.71459790691071,10.933663936970708 L 112.00847312524749,8.017949994773863 A 178.04696519640447 178.04696519640447 0 0 1 91.19493742260396,11.766246917020027"/><text text-anchor="middle" pointer-events="none" font-size="8px" fill="#000000" x="67.95285321267012" y="15.50725038699565" transform="rotate(180 67.95285321267012 12.50725038699565)" font-family="sans-serif">twowheeler</text></g><g class="relationship" transform="translate(104.81414402802093 39.31831604051805) rotate(200.9580445945449)"><path class="outline" fill="#A5ABB6" stroke="none" d="M 24.018736134675446,6.953439040707552 L 24.277555179777966,5.987513214418485 A 95.74050453744236 95.74050453744236 0 0 0 24.624267203137975,6.079718521889632 L 24.3690695304633,7.0466074233987115 A 96.74050453744236 96.74050453744236 0 0 1 24.018736134675446,6.953439040707552 Z M 70.61659480297257,7.8168161305056145 L 70.39373495988755,6.841965634101101 A 95.74050453744236 95.74050453744236 0 0 0 70.7433250426999,6.761356578359988 L 70.0637912130314,3.8393309497358885 L 77.67464048110088,5.662781913904169 L 71.64937014892458,10.657390749858786 L 70.96983631925607,7.735365121234687 A 96.74050453744236 96.74050453744236 0 0 1 70.61659480297257,7.8168161305056145"/><text text-anchor="middle" pointer-events="none" font-size="8px" fill="#000000" x="47.454448967966805" y="12.736448061939967" transform="rotate(180 47.454448967966805 9.736448061939967)" font-family="sans-serif">twowheeler</text></g><g class="relationship" transform="translate(9.53898959728943 2.8256346820627174) rotate(447.30872180435773)"><path class="outline" fill="#A5ABB6" stroke="none" d="M 24.018736134675446,-6.953439040707552 L 24.277555179777966,-5.987513214418485 A 93.21741611078471 93.21741611078471 0 0 1 24.4401364639317,-6.030919494597185 L 24.183061527290203,-6.997310966491867 A 94.21741611078471 94.21741611078471 0 0 0 24.018736134675446,-6.953439040707552 Z M 69.54386449500403,-7.761584929729793 L 69.31949125741014,-6.78708164587097 A 93.21741611078471 93.21741611078471 0 0 1 69.4834425304005,-6.749177039279329 L 68.80504640212165,-3.8268870651090254 L 76.41518515817768,-5.6533010689904 L 70.38797070143896,-10.6455636715064 L 69.70957457316011,-7.723273697336096 A 94.21741611078471 94.21741611078471 0 0 0 69.54386449500403,-7.761584929729793"/><text text-anchor="middle" pointer-events="none" font-size="8px" fill="#000000" x="46.82519822629084" y="-6.6505201682270325" font-family="sans-serif">twowhee…</text></g><g class="relationship" transform="translate(116.55147907858392 181.82751246816855) rotate(387.1328883594804)"><path class="outline" fill="#A5ABB6" stroke="none" d="M 25 0.5 L 44.66064938212231 0.5 L 44.66064938212231 -0.5 L 25 -0.5 Z M 63.99658688212231 0.5 L 83.65723626424462 0.5 L 83.65723626424462 3.5 L 90.65723626424462 0 L 83.65723626424462 -3.5 L 83.65723626424462 -0.5 L 63.99658688212231 -0.5 Z"/><text text-anchor="middle" pointer-events="none" font-size="8px" fill="#000000" x="54.32861813212231" y="3" font-family="sans-serif">trek</text></g><g class="relationship" transform="translate(104.81414402802093 39.31831604051805) rotate(248.26185873345474)"><path class="outline" fill="#A5ABB6" stroke="none" d="M 24.018736134675446,-6.953439040707552 L 24.277555179777966,-5.987513214418485 A 139.45624066466007 139.45624066466007 0 0 1 35.42442782634701,-8.489860834372507 L 35.24553975165816,-9.47373026510715 A 140.45624066466007 140.45624066466007 0 0 0 24.018736134675446,-6.953439040707552 Z M 81.65806474005103,-10.116975877099264 L 81.5065116412558,-9.128526759417639 A 139.45624066466007 139.45624066466007 0 0 1 92.71845122317355,-6.936056868781908 L 92.02259928753813,-4.017874200806437 L 99.64351943772222,-5.7987661302951725 L 93.64625380402077,-10.826967092749204 L 92.95040186838536,-7.9087844247737324 A 140.45624066466007 140.45624066466007 0 0 0 81.65806474005103,-10.116975877099264"/><text text-anchor="middle" pointer-events="none" font-size="8px" fill="#000000" x="58.43197543703139" y="-8.225929887782996" transform="rotate(180 58.43197543703139 -11.225929887782996)" font-family="sans-serif">twowheeler</text></g><g class="relationship" transform="translate(58.9030423423385 -75.82800772174004) rotate(482.11291844449977)"><path class="outline" fill="#A5ABB6" stroke="none" d="M 21.40063509461097,12.933012701892217 L 21.90063509461097,12.06698729810778 A 44.76320968630412 44.76320968630412 0 0 0 31.97541778353429,16.33911532553308 L 31.700486154625782,17.300579105103438 A 45.76320968630412 45.76320968630412 0 0 1 21.40063509461097,12.933012701892217 Z M 53.72292888370032,18.079753248891222 L 53.51663459161175,17.101263256580793 A 44.76320968630412 44.76320968630412 0 0 0 63.868151039834125,13.55183635440018 L 62.555516541146886,10.854246564818355 L 70.38129963197292,10.938620822393606 L 65.6183303714171,17.148622740509282 L 64.30569587272987,14.451032950927456 A 45.76320968630412 45.76320968630412 0 0 1 53.72292888370032,18.079753248891222"/><text text-anchor="middle" pointer-events="none" font-size="8px" fill="#000000" x="42.68178764295032" y="21.53581636394113" transform="rotate(180 42.68178764295032 18.53581636394113)" font-family="sans-serif">road</text></g><g class="relationship" transform="translate(104.81414402802093 39.31831604051805) rotate(248.26185873345474)"><path class="outline" fill="#A5ABB6" stroke="none" d="M 24.018736134675446,6.953439040707552 L 24.277555179777966,5.987513214418485 A 139.45624066466007 139.45624066466007 0 0 0 48.81866811790246,10.26001692072711 L 48.735826231091025,11.256579624117876 A 140.45624066466007 140.45624066466007 0 0 1 24.018736134675446,6.953439040707552 Z M 68.12355107068673,11.52528012969691 L 68.06835904211036,10.52680437136243 A 139.45624066466007 139.45624066466007 0 0 0 92.71845122317355,6.936056868781908 L 92.02259928753813,4.017874200806437 L 99.64351943772222,5.7987661302951725 L 93.64625380402077,10.826967092749204 L 92.95040186838536,7.9087844247737324 A 140.45624066466007 140.45624066466007 0 0 1 68.12355107068673,11.52528012969691"/><text text-anchor="middle" pointer-events="none" font-size="8px" fill="#000000" x="58.431975437031404" y="14.225929887782996" transform="rotate(180 58.431975437031404 11.225929887782996)" font-family="sans-serif">trek</text></g><g class="relationship" transform="translate(58.9030423423385 -75.82800772174004) rotate(482.11291844449977)"><path class="outline" fill="#A5ABB6" stroke="none" d="M 25 0.5 L 33.26263852257739 0.5 L 33.26263852257739 -0.5 L 25 -0.5 Z M 52.59857602257739 0.5 L 60.86121454515478 0.5 L 60.86121454515478 3.5 L 67.86121454515478 0 L 60.86121454515478 -3.5 L 60.86121454515478 -0.5 L 52.59857602257739 -0.5 Z"/><text text-anchor="middle" pointer-events="none" font-size="8px" fill="#000000" x="42.93060727257739" y="3" transform="rotate(180 42.93060727257739 0)" font-family="sans-serif">trek</text></g><g class="relationship" transform="translate(58.9030423423385 -75.82800772174004) rotate(482.11291844449977)"><path class="outline" fill="#A5ABB6" stroke="none" d="M 21.40063509461097,-12.933012701892217 L 21.90063509461097,-12.06698729810778 A 44.76320968630412 44.76320968630412 0 0 1 23.229203946114534,-12.804259994530376 L 22.758883874359494,-13.68675590392845 A 45.76320968630412 45.76320968630412 0 0 0 21.40063509461097,-12.933012701892217 Z M 62.8975738147885,-15.106899425328436 L 62.49079872176882,-14.193371087673363 A 44.76320968630412 44.76320968630412 0 0 1 63.868151039834125,-13.55183635440018 L 62.555516541146886,-10.854246564818355 L 70.38129963197292,-10.938620822393606 L 65.6183303714171,-17.148622740509282 L 64.30569587272987,-14.451032950927456 A 45.76320968630412 45.76320968630412 0 0 0 62.8975738147885,-15.106899425328436"/><text text-anchor="middle" pointer-events="none" font-size="8px" fill="#000000" x="42.68178764295032" y="-15.53581636394113" transform="rotate(180 42.68178764295032 -18.53581636394113)" font-family="sans-serif">twowhe…</text></g><g class="relationship" transform="translate(58.9030423423385 -75.82800772174004) rotate(506.74977419528284)"><path class="outline" fill="#A5ABB6" stroke="none" d="M 25 0.5 L 52.05383373049652 0.5 L 52.05383373049652 -0.5 L 25 -0.5 Z M 71.38977123049652 0.5 L 98.44360496099304 0.5 L 98.44360496099304 3.5 L 105.44360496099304 0 L 98.44360496099304 -3.5 L 98.44360496099304 -0.5 L 71.38977123049652 -0.5 Z"/><text text-anchor="middle" pointer-events="none" font-size="8px" fill="#000000" x="61.72180248049652" y="3" transform="rotate(180 61.72180248049652 0)" font-family="sans-serif">trek</text></g><g class="relationship" transform="translate(-50.184856736385484 -4.306232367588351) rotate(419.1213948467838)"><path class="outline" fill="#A5ABB6" stroke="none" d="M 25 0.5 L 49.62696022528229 0.5 L 49.62696022528229 -0.5 L 25 -0.5 Z M 68.96289772528229 0.5 L 93.58985795056458 0.5 L 93.58985795056458 3.5 L 100.58985795056458 0 L 93.58985795056458 -3.5 L 93.58985795056458 -0.5 L 68.96289772528229 -0.5 Z"/><text text-anchor="middle" pointer-events="none" font-size="8px" fill="#000000" x="59.29492897528229" y="3" font-family="sans-serif">trek</text></g></g><g class="layer nodes"><g class="node" transform="translate(126.92790729984316,292.55097080148204)"><circle class="outline" cx="0" cy="0" r="25" fill="#68BDF6" stroke="#5CA8DB" stroke-width="2px"/><text text-anchor="middle" pointer-events="none" font-family="sans-serif" dy="1.5625" font-size="25" fill="#FFFFFF"/><text text-anchor="middle" pointer-events="none" y="5" font-size="10px" fill="#FFFFFF" font-family="sans-serif"> Darjeeling</text></g><g class="node" transform="translate(219.48077187614686,234.57366857908207)"><circle class="outline" cx="0" cy="0" r="25" fill="#6DCE9E" stroke="#60B58B" stroke-width="2px"/><text text-anchor="middle" pointer-events="none" font-family="sans-serif" dy="1.5625" font-size="25" fill="#FFFFFF"/><text text-anchor="middle" pointer-events="none" y="5" font-size="10px" fill="#FFFFFF" font-family="sans-serif"> Tumbling</text></g><g class="node" transform="translate(266.7532244452916,130.61814296590407)"><circle class="outline" cx="0" cy="0" r="25" fill="#6DCE9E" stroke="#60B58B" stroke-width="2px"/><text text-anchor="middle" pointer-events="none" font-family="sans-serif" dy="1.5625" font-size="25" fill="#FFFFFF"/><text text-anchor="middle" pointer-events="none" y="5" font-size="10px" fill="#FFFFFF" font-family="sans-serif"> Gairibus</text></g><g class="node" transform="translate(154.5794592146442,95.22003989888928)"><circle class="outline" cx="0" cy="0" r="25" fill="#6DCE9E" stroke="#60B58B" stroke-width="2px"/><text text-anchor="middle" pointer-events="none" font-family="sans-serif" dy="1.5625" font-size="25" fill="#FFFFFF"/><text text-anchor="middle" pointer-events="none" y="5" font-size="10px" fill="#FFFFFF" font-family="sans-serif"> BhikeBh…</text></g><g class="node" transform="translate(14.27047136138953,103.48209306634334)"><circle class="outline" cx="0" cy="0" r="25" fill="#FF756E" stroke="#E06760" stroke-width="2px"/><text text-anchor="middle" pointer-events="none" font-family="sans-serif" dy="1.5625" font-size="25" fill="#FFFFFF"/><text text-anchor="middle" pointer-events="none" y="5" font-size="10px" fill="#FFFFFF" font-family="sans-serif"> Sandak…</text></g><g class="node" transform="translate(116.55147907858392,181.82751246816855)"><circle class="outline" cx="0" cy="0" r="25" fill="#68BDF6" stroke="#5CA8DB" stroke-width="2px"/><text text-anchor="middle" pointer-events="none" font-family="sans-serif" dy="1.5625" font-size="25" fill="#FFFFFF"/><text text-anchor="middle" pointer-events="none" y="5" font-size="10px" fill="#FFFFFF" font-family="sans-serif"> Rimbik</text></g><g class="node" transform="translate(104.81414402802093,39.31831604051805)"><circle class="outline" cx="0" cy="0" r="25" fill="#6DCE9E" stroke="#60B58B" stroke-width="2px"/><text text-anchor="middle" pointer-events="none" font-family="sans-serif" dy="1.5625" font-size="25" fill="#FFFFFF"/><text text-anchor="middle" pointer-events="none" y="5" font-size="10px" fill="#FFFFFF" font-family="sans-serif"> Sirikhola</text></g><g class="node" transform="translate(9.53898959728943,2.8256346820627174)"><circle class="outline" cx="0" cy="0" r="25" fill="#6DCE9E" stroke="#60B58B" stroke-width="2px"/><text text-anchor="middle" pointer-events="none" font-family="sans-serif" dy="1.5625" font-size="25" fill="#FFFFFF"/><text text-anchor="middle" pointer-events="none" y="5" font-size="10px" fill="#FFFFFF" font-family="sans-serif"> Gurdum</text></g><g class="node" transform="translate(58.9030423423385,-75.82800772174004)"><circle class="outline" cx="0" cy="0" r="25" fill="#6DCE9E" stroke="#60B58B" stroke-width="2px"/><text text-anchor="middle" pointer-events="none" font-family="sans-serif" dy="1.5625" font-size="25" fill="#FFFFFF"/><text text-anchor="middle" pointer-events="none" y="5" font-size="10px" fill="#FFFFFF" font-family="sans-serif"> Rammam</text></g><g class="node" transform="translate(-50.184856736385484,-4.306232367588351)"><circle class="outline" cx="0" cy="0" r="25" fill="#FF756E" stroke="#E06760" stroke-width="2px"/><text text-anchor="middle" pointer-events="none" font-family="sans-serif" dy="1.5625" font-size="25" fill="#FFFFFF"/><text text-anchor="middle" pointer-events="none" y="5" font-size="10px" fill="#FFFFFF" font-family="sans-serif"> Sabargr…</text></g></g></svg>