<svg xmlns="http://www.w3.org/2000/svg" width="441.8667907714844" height="256.79876708984375" viewBox="-130.46377563476562 -36.74656677246094 441.8667907714844 256.79876708984375"><title>Neo4j Graph Visualization</title><desc>Created using Neo4j (http://www.neo4j.com/)</desc><g class="layer relationships"><g class="relationship" transform="translate(219.6680416253991 191.05220310899963) rotate(189.5621460819616)"><path class="outline" fill="#A5ABB6" stroke="none" d="M 21.40063509461097,12.933012701892217 L 21.90063509461097,12.06698729810778 A 60.30824438714822 60.30824438714822 0 0 0 23.634442264506042,13.030338610141271 L 23.163191354908424,13.912337805267555 A 61.30824438714822 61.30824438714822 0 0 1 21.40063509461097,12.933012701892217 Z M 77.57088762826007,15.58461790712159 L 77.15469351611185,14.675342117818275 A 60.30824438714822 60.30824438714822 0 0 0 78.94439131858296,13.820289588083325 L 77.60678146256824,11.134996331641435 L 85.43301055961649,11.146748800122635 L 80.72787112660258,17.40068059667251 L 79.39026127058786,14.715387340230622 A 61.30824438714822 61.30824438714822 0 0 1 77.57088762826007,15.58461790712159"/><text text-anchor="middle" pointer-events="none" font-size="8px" fill="#000000" x="50.186631541658194" y="23.61805732077829" transform="rotate(180 50.186631541658194 20.61805732077829)" font-family="sans-serif">PublicTrans…</text></g><g class="relationship" transform="translate(113.35550551033218 173.14302292665892) rotate(328.8694257987503)"><path class="outline" fill="#A5ABB6" stroke="none" d="M 25 0.5 L 38.66496575161354 0.5 L 38.66496575161354 -0.5 L 25 -0.5 Z M 58.00090325161354 0.5 L 71.66586900322709 0.5 L 71.66586900322709 3.5 L 78.66586900322709 0 L 71.66586900322709 -3.5 L 71.66586900322709 -0.5 L 58.00090325161354 -0.5 Z"/><text text-anchor="middle" pointer-events="none" font-size="8px" fill="#000000" x="48.33293450161354" y="3" font-family="sans-serif">trek</text></g><g class="relationship" transform="translate(202.09259058781083 119.54878696656193) rotate(206.76110541090128)"><path class="outline" fill="#A5ABB6" stroke="none" d="M 25 0.5 L 56.71707113505029 0.5 L 56.71707113505029 -0.5 L 25 -0.5 Z M 76.05300863505029 0.5 L 107.77007977010058 0.5 L 107.77007977010058 3.5 L 114.77007977010058 0 L 107.77007977010058 -3.5 L 107.77007977010058 -0.5 L 76.05300863505029 -0.5 Z"/><text text-anchor="middle" pointer-events="none" font-size="8px" fill="#000000" x="66.38503988505029" y="3" transform="rotate(180 66.38503988505029 0)" font-family="sans-serif">trek</text></g><g class="relationship" transform="translate(219.6680416253991 191.05220310899963) rotate(189.5621460819616)"><path class="outline" fill="#A5ABB6" stroke="none" d="M 25 0.5 L 39.39936780664945 0.5 L 39.39936780664945 -0.5 L 25 -0.5 Z M 61.41108655664945 0.5 L 75.8104543632989 0.5 L 75.8104543632989 3.5 L 82.8104543632989 0 L 75.8104543632989 -3.5 L 75.8104543632989 -0.5 L 61.41108655664945 -0.5 Z"/><text text-anchor="middle" pointer-events="none" font-size="8px" fill="#000000" x="50.40522718164945" y="3" transform="rotate(180 50.40522718164945 0)" font-family="sans-serif">road</text></g><g class="relationship" transform="translate(219.6680416253991 191.05220310899963) rotate(189.5621460819616)"><path class="outline" fill="#A5ABB6" stroke="none" d="M 21.40063509461097,-12.933012701892217 L 21.90063509461097,-12.06698729810778 A 60.30824438714822 60.30824438714822 0 0 1 40.68173946511359,-19.064682171861598 L 40.493157987760966,-20.046739719258646 A 61.30824438714822 61.30824438714822 0 0 0 21.40063509461097,-12.933012701892217 Z M 59.896894383727464,-20.643134797513206 L 59.768981128765844,-19.651349438070383 A 60.30824438714822 60.30824438714822 0 0 1 78.94439131858296,-13.820289588083325 L 77.60678146256824,-11.134996331641435 L 85.43301055961649,-11.146748800122635 L 80.72787112660258,-17.40068059667251 L 79.39026127058786,-14.715387340230622 A 61.30824438714822 61.30824438714822 0 0 0 59.896894383727464,-20.643134797513206"/><text text-anchor="middle" pointer-events="none" font-size="8px" fill="#000000" x="50.18663154165818" y="-17.61805732077829" transform="rotate(180 50.18663154165818 -20.61805732077829)" font-family="sans-serif">trek</text></g><g class="relationship" transform="translate(219.6680416253991 191.05220310899963) rotate(253.15545111768984)"><path class="outline" fill="#A5ABB6" stroke="none" d="M 24.018736134675446,-6.953439040707552 L 24.277555179777966,-5.987513214418485 A 157.9643162174786 157.9643162174786 0 0 1 53.491947122728504,-10.938368261093672 L 53.4180710612219,-11.93563569139323 A 158.9643162174786 158.9643162174786 0 0 0 24.018736134675446,-6.953439040707552 Z M 72.80136657552201,-12.186334641139723 L 72.75330775267518,-11.187490133948245 A 157.9643162174786 157.9643162174786 0 0 1 102.085972185133,-6.993868836984739 L 101.38472057833013,-4.076979023509367 L 109.00892368437601,-5.843763390023934 L 103.02097432753683,-10.883055254951902 L 102.31972272073396,-7.966165441476529 A 158.9643162174786 158.9643162174786 0 0 0 72.80136657552201,-12.186334641139723"/><text text-anchor="middle" pointer-events="none" font-size="8px" fill="#000000" x="63.112360162697094" y="-8.856764296331022" transform="rotate(180 63.112360162697094 -11.856764296331022)" font-family="sans-serif">trek</text></g><g class="relationship" transform="translate(181.0361596972508 63.455871308910965) rotate(343.68129454883444)"><path class="outline" fill="#A5ABB6" stroke="none" d="M 21.40063509461097,-12.933012701892217 L 21.90063509461097,-12.06698729810778 A 58.0431234013233 58.0431234013233 0 0 1 39.591642237012074,-18.726635466357514 L 39.396432987504284,-19.707397083115943 A 59.0431234013233 59.0431234013233 0 0 0 21.40063509461097,-12.933012701892217 Z M 58.799469251099914,-20.31545651499706 L 58.66605367275585,-19.32439633344645 A 58.0431234013233 58.0431234013233 0 0 1 76.73934191644744,-13.78554270676536 L 75.40496446008612,-11.098641740232601 L 83.23117374775077,-11.11981213634439 L 78.51851185826254,-17.36807732880904 L 77.18413440190122,-14.68117636227628 A 59.0431234013233 59.0431234013233 0 0 0 58.799469251099914,-20.31545651499706"/><text text-anchor="middle" pointer-events="none" font-size="8px" fill="#000000" x="49.08845126132141" y="-17.314565076721387" font-family="sans-serif">trek</text></g><g class="relationship" transform="translate(282.40304525317833 33.77819292969307) rotate(493.1170018828803)"><path class="outline" fill="#A5ABB6" stroke="none" d="M 21.40063509461097,12.933012701892217 L 21.90063509461097,12.06698729810778 A 70.30348394827467 70.30348394827467 0 0 0 45.51425250398128,20.532593573661202 L 45.35013368771812,21.519034151774434 A 71.30348394827467 71.30348394827467 0 0 1 21.40063509461097,12.933012701892217 Z M 64.75438060691475,22.068673199440184 L 64.64636339496822,21.074524175438597 A 70.30348394827467 70.30348394827467 0 0 0 88.70132271932056,13.959164123230545 L 87.35079452897406,11.28034468043873 L 95.17698945089253,11.25440158622071 L 90.50202697311587,17.530923380286296 L 89.15149878276938,14.852103937494482 A 71.30348394827467 71.30348394827467 0 0 1 64.75438060691475,22.068673199440184"/><text text-anchor="middle" pointer-events="none" font-size="8px" fill="#000000" x="55.04762229259758" y="24.95748081560268" transform="rotate(180 55.04762229259758 21.95748081560268)" font-family="sans-serif">trek</text></g><g class="relationship" transform="translate(219.6680416253991 191.05220310899963) rotate(253.15545111768984)"><path class="outline" fill="#A5ABB6" stroke="none" d="M 24.018736134675446,6.953439040707552 L 24.277555179777966,5.987513214418485 A 157.9643162174786 157.9643162174786 0 0 0 52.16235398700648,10.834228636252163 L 52.08006087810868,11.830836806110256 A 158.9643162174786 158.9643162174786 0 0 1 24.018736134675446,6.953439040707552 Z M 74.14163961734285,12.116176036252767 L 74.08514951209432,11.117772877198774 A 157.9643162174786 157.9643162174786 0 0 0 102.085972185133,6.993868836984739 L 101.38472057833013,4.076979023509367 L 109.00892368437601,5.843763390023934 L 103.02097432753683,10.883055254951902 L 102.31972272073396,7.966165441476529 A 158.9643162174786 158.9643162174786 0 0 1 74.14163961734285,12.116176036252767"/><text text-anchor="middle" pointer-events="none" font-size="8px" fill="#000000" x="63.112360162697115" y="14.856764296331022" transform="rotate(180 63.112360162697115 11.856764296331022)" font-family="sans-serif">road</text></g><g class="relationship" transform="translate(113.35550551033218 173.14302292665892) rotate(301.6759786653801)"><path class="outline" fill="#A5ABB6" stroke="none" d="M 25 0.5 L 51.275693043042324 0.5 L 51.275693043042324 -0.5 L 25 -0.5 Z M 70.61163054304232 0.5 L 96.88732358608465 0.5 L 96.88732358608465 3.5 L 103.88732358608465 0 L 96.88732358608465 -3.5 L 96.88732358608465 -0.5 L 70.61163054304232 -0.5 Z"/><text text-anchor="middle" pointer-events="none" font-size="8px" fill="#000000" x="60.943661793042324" y="3" font-family="sans-serif">trek</text></g><g class="relationship" transform="translate(181.0361596972508 63.455871308910965) rotate(343.68129454883444)"><path class="outline" fill="#A5ABB6" stroke="none" d="M 25 0.5 L 38.30514819276187 0.5 L 38.30514819276187 -0.5 L 25 -0.5 Z M 60.31686694276187 0.5 L 73.62201513552374 0.5 L 73.62201513552374 3.5 L 80.62201513552374 0 L 73.62201513552374 -3.5 L 73.62201513552374 -0.5 L 60.31686694276187 -0.5 Z"/><text text-anchor="middle" pointer-events="none" font-size="8px" fill="#000000" x="49.31100756776187" y="3" font-family="sans-serif">road</text></g><g class="relationship" transform="translate(181.0361596972508 63.455871308910965) rotate(343.68129454883444)"><path class="outline" fill="#A5ABB6" stroke="none" d="M 21.40063509461097,12.933012701892217 L 21.90063509461097,12.06698729810778 A 58.0431234013233 58.0431234013233 0 0 0 26.822250645311914,14.603546310906708 L 26.407043042107514,15.51327299856694 A 59.0431234013233 59.0431234013233 0 0 1 21.40063509461097,12.933012701892217 Z M 72.02598671677667,16.942896104816583 L 71.66855660966564,16.008956214603828 A 58.0431234013233 58.0431234013233 0 0 0 76.73934191644744,13.78554270676536 L 75.40496446008612,11.098641740232601 L 83.23117374775077,11.11981213634439 L 78.51851185826254,17.36807732880904 L 77.18413440190122,14.68117636227628 A 59.0431234013233 59.0431234013233 0 0 1 72.02598671677667,16.942896104816583"/><text text-anchor="middle" pointer-events="none" font-size="8px" fill="#000000" x="49.08845126132141" y="23.314565076721387" font-family="sans-serif">twowheeler</text></g><g class="relationship" transform="translate(282.40304525317833 33.77819292969307) rotate(493.1170018828803)"><path class="outline" fill="#A5ABB6" stroke="none" d="M 25 0.5 L 32.017820528745474 0.5 L 32.017820528745474 -0.5 L 25 -0.5 Z M 78.48266427874547 0.5 L 85.50048480749095 0.5 L 85.50048480749095 3.5 L 92.50048480749095 0 L 85.50048480749095 -3.5 L 85.50048480749095 -0.5 L 78.48266427874547 -0.5 Z"/><text text-anchor="middle" pointer-events="none" font-size="8px" fill="#000000" x="55.250242403745474" y="3" transform="rotate(180 55.250242403745474 0)" font-family="sans-serif">twowheeler</text></g><g class="relationship" transform="translate(282.40304525317833 33.77819292969307) rotate(493.1170018828803)"><path class="outline" fill="#A5ABB6" stroke="none" d="M 21.40063509461097,-12.933012701892217 L 21.90063509461097,-12.06698729810778 A 70.30348394827467 70.30348394827467 0 0 1 44.205960486250376,-20.302203641462867 L 44.023232463952795,-21.285367142548623 A 71.30348394827467 71.30348394827467 0 0 0 21.40063509461097,-12.933012701892217 Z M 66.09238122525366,-21.910491423767454 L 65.96559914314582,-20.918560829594455 A 70.30348394827467 70.30348394827467 0 0 1 88.70132271932056,-13.959164123230545 L 87.35079452897406,-11.28034468043873 L 95.17698945089253,-11.25440158622071 L 90.50202697311587,-17.530923380286296 L 89.15149878276938,-14.852103937494482 A 71.30348394827467 71.30348394827467 0 0 0 66.09238122525366,-21.910491423767454"/><text text-anchor="middle" pointer-events="none" font-size="8px" fill="#000000" x="55.04762229259755" y="-18.95748081560268" transform="rotate(180 55.04762229259755 -21.95748081560268)" font-family="sans-serif">road</text></g><g class="relationship" transform="translate(113.35550551033218 173.14302292665892) rotate(214.50162542216384)"><path class="outline" fill="#A5ABB6" stroke="none" d="M 24.018736134675446,-6.953439040707552 L 24.277555179777966,-5.987513214418485 A 147.52248388586855 147.52248388586855 0 0 1 50.85321550828917,-10.556975868381812 L 50.77454297122044,-11.553876380926141 A 148.52248388586855 148.52248388586855 0 0 0 24.018736134675446,-6.953439040707552 Z M 70.16025258026968,-11.814430747046629 L 70.10840138044786,-10.81577592526034 A 147.52248388586855 147.52248388586855 0 0 1 96.79727164741496,-6.962217217342482 L 96.09897629976388,-4.044618271728322 L 103.7213850784565,-5.81912789709232 L 97.72833211094974,-10.852349144828029 L 97.03003676329865,-7.934750199213869 A 148.52248388586855 148.52248388586855 0 0 0 70.16025258026968,-11.814430747046629"/><text text-anchor="middle" pointer-events="none" font-size="8px" fill="#000000" x="60.469861450327215" y="-8.500851780439689" transform="rotate(180 60.469861450327215 -11.500851780439689)" font-family="sans-serif">trek</text></g><g class="relationship" transform="translate(7.840805605910428 100.62037147968252) rotate(254.4645676857619)"><path class="outline" fill="#A5ABB6" stroke="none" d="M 24.018736134675446,-6.953439040707552 L 24.277555179777966,-5.987513214418485 A 116.63309624595858 116.63309624595858 0 0 1 43.0838379737696,-9.40512608722183 L 42.986262035463554,-10.400354169755516 A 117.63309624595858 117.63309624595858 0 0 0 24.018736134675446,-6.953439040707552 Z M 62.38045845544889,-10.695035299202985 L 62.31316415707057,-9.697302129760487 A 116.63309624595858 116.63309624595858 0 0 1 81.21459793150167,-6.852631402465008 L 80.52653827223695,-3.9326016243133317 L 88.14267735706636,-5.73383049387262 L 82.1320108105213,-10.746004440000576 L 81.44395115125657,-7.8259746618489 A 117.63309624595858 117.63309624595858 0 0 0 62.38045845544889,-10.695035299202985"/><text text-anchor="middle" pointer-events="none" font-size="8px" fill="#000000" x="52.6848724402234" y="-7.448170878320056" transform="rotate(180 52.6848724402234 -10.448170878320056)" font-family="sans-serif">trek</text></g><g class="relationship" transform="translate(-22.28418816845193 -7.746567911958287) rotate(392.8762505789697)"><path class="outline" fill="#A5ABB6" stroke="none" d="M 24.018736134675446,6.953439040707552 L 24.277555179777966,5.987513214418485 A 128.7499868779014 128.7499868779014 0 0 0 46.12411119492096,9.862056753424895 L 46.03497415557942,10.858076124831626 A 129.7499868779014 129.7499868779014 0 0 1 24.018736134675446,6.953439040707552 Z M 65.42559038291483,11.138386274707699 L 65.36528142465806,10.140206516570913 A 128.7499868779014 128.7499868779014 0 0 0 87.3147057365873,6.8987763178277985 L 86.62233591310248,3.9797655217656143 L 94.24112589797987,5.769748529040232 L 88.23786550123374,10.790790712577378 L 87.54549567774892,7.871779916515194 A 129.7499868779014 129.7499868779014 0 0 1 65.42559038291483,11.138386274707699"/><text text-anchor="middle" pointer-events="none" font-size="8px" fill="#000000" x="55.73226521566564" y="13.861059738023954" font-family="sans-serif">trek</text></g><g class="relationship" transform="translate(113.35550551033218 173.14302292665892) rotate(214.50162542216384)"><path class="outline" fill="#A5ABB6" stroke="none" d="M 24.018736134675446,6.953439040707552 L 24.277555179777966,5.987513214418485 A 147.52248388586855 147.52248388586855 0 0 0 37.44403234931626,8.877861475642476 L 37.27446395145559,9.86337989680311 A 148.52248388586855 148.52248388586855 0 0 1 24.018736134675446,6.953439040707552 Z M 83.70088911157647,10.487376027086015 L 83.55786897775195,9.497656247895549 A 147.52248388586855 147.52248388586855 0 0 0 96.79727164741496,6.962217217342482 L 96.09897629976388,4.044618271728322 L 103.7213850784565,5.81912789709232 L 97.72833211094974,10.852349144828029 L 97.03003676329865,7.934750199213869 A 148.52248388586855 148.52248388586855 0 0 1 83.70088911157647,10.487376027086015"/><text text-anchor="middle" pointer-events="none" font-size="8px" fill="#000000" x="60.46986145032725" y="14.500851780439689" transform="rotate(180 60.46986145032725 11.500851780439689)" font-family="sans-serif">twowheeler</text></g><g class="relationship" transform="translate(7.840805605910428 100.62037147968252) rotate(254.4645676857619)"><path class="outline" fill="#A5ABB6" stroke="none" d="M 24.018736134675446,6.953439040707552 L 24.277555179777966,5.987513214418485 A 116.63309624595858 116.63309624595858 0 0 0 29.74798745658413,7.31270195495901 L 29.536071327145187,8.289989811265244 A 117.63309624595858 117.63309624595858 0 0 1 24.018736134675446,6.953439040707552 Z M 75.88855639040476,8.99428311403193 L 75.70642963104359,8.011008054079426 A 116.63309624595858 116.63309624595858 0 0 0 81.21459793150167,6.852631402465008 L 80.52653827223695,3.9326016243133317 L 88.14267735706636,5.73383049387262 L 82.1320108105213,10.746004440000576 L 81.44395115125657,7.8259746618489 A 117.63309624595858 117.63309624595858 0 0 1 75.88855639040476,8.99428311403193"/><text text-anchor="middle" pointer-events="none" font-size="8px" fill="#000000" x="52.684872440223465" y="13.448170878320056" transform="rotate(180 52.684872440223465 10.448170878320056)" font-family="sans-serif">twowheeler</text></g><g class="relationship" transform="translate(7.840805605910428 100.62037147968252) rotate(195.12014228081046)"><path class="outline" fill="#A5ABB6" stroke="none" d="M 24.018736134675446,-6.953439040707552 L 24.277555179777966,-5.987513214418485 A 118.12345061034104 118.12345061034104 0 0 1 30.11657414583183,-7.393998173915165 L 29.907186597488707,-8.371830907361357 A 119.12345061034104 119.12345061034104 0 0 0 24.018736134675446,-6.953439040707552 Z M 76.26487141368702,-9.071811945157833 L 76.08510229658198,-8.088103113981006 A 118.12345061034104 118.12345061034104 0 0 1 81.96392426242366,-6.858552496411943 L 81.27531153773522,-3.9386530948233944 L 88.89179165357834,-5.738439372403673 L 82.88207456200824,-10.751751698530008 L 82.1934618373198,-7.831852296941459 A 119.12345061034104 119.12345061034104 0 0 0 76.26487141368702,-9.071811945157833"/><text text-anchor="middle" pointer-events="none" font-size="8px" fill="#000000" x="53.05919510665656" y="-7.4989516081897705" transform="rotate(180 53.05919510665656 -10.49895160818977)" font-family="sans-serif">twowheeler</text></g><g class="relationship" transform="translate(-101.46376847204654 71.08650656420284) rotate(315.12564366881116)"><path class="outline" fill="#A5ABB6" stroke="none" d="M 21.40063509461097,12.933012701892217 L 21.90063509461097,12.06698729810778 A 64.3597759902805 64.3597759902805 0 0 0 41.33262185948516,19.414426116945272 L 41.13454936724728,20.394613490776763 A 65.3597759902805 65.3597759902805 0 0 1 21.40063509461097,12.933012701892217 Z M 63.19992281473961,21.050237992452466 L 63.06039663695185,20.060019609613647 A 64.3597759902805 64.3597759902805 0 0 0 82.89434367870636,13.879282471400922 L 81.55124606164941,11.19672980816094 L 89.37748282910916,11.192480142141346 L 84.68514050144898,17.456019355720898 L 83.34204288439203,14.773466692480914 A 65.3597759902805 65.3597759902805 0 0 1 63.19992281473961,21.050237992452466"/><text text-anchor="middle" pointer-events="none" font-size="8px" fill="#000000" x="52.154206284363795" y="24.160950458883576" font-family="sans-serif">road</text></g><g class="relationship" transform="translate(7.840805605910428 100.62037147968252) rotate(195.12014228081046)"><path class="outline" fill="#A5ABB6" stroke="none" d="M 24.018736134675446,6.953439040707552 L 24.277555179777966,5.987513214418485 A 118.12345061034104 118.12345061034104 0 0 0 43.457196412314275,9.461765463621475 L 43.36074683012056,10.457103334946922 A 119.12345061034104 119.12345061034104 0 0 1 24.018736134675446,6.953439040707552 Z M 62.754485451304,10.749940419901293 L 62.688131332615825,9.75214428294089 A 118.12345061034104 118.12345061034104 0 0 0 81.96392426242366,6.858552496411943 L 81.27531153773522,3.9386530948233944 L 88.89179165357834,5.738439372403673 L 82.88207456200824,10.751751698530008 L 82.1934618373198,7.831852296941459 A 119.12345061034104 119.12345061034104 0 0 1 62.754485451304,10.749940419901293"/><text text-anchor="middle" pointer-events="none" font-size="8px" fill="#000000" x="53.059195106656574" y="13.49895160818977" transform="rotate(180 53.059195106656574 10.49895160818977)" font-family="sans-serif">trek</text></g><g class="relationship" transform="translate(-101.46376847204654 71.08650656420284) rotate(315.12564366881116)"><path class="outline" fill="#A5ABB6" stroke="none" d="M 25 0.5 L 42.69807542805451 0.5 L 42.69807542805451 -0.5 L 25 -0.5 Z M 62.03401292805451 0.5 L 79.73208835610902 0.5 L 79.73208835610902 3.5 L 86.73208835610902 0 L 79.73208835610902 -3.5 L 79.73208835610902 -0.5 L 62.03401292805451 -0.5 Z"/><text text-anchor="middle" pointer-events="none" font-size="8px" fill="#000000" x="52.36604417805451" y="3" font-family="sans-serif">trek</text></g><g class="relationship" transform="translate(-101.46376847204654 71.08650656420284) rotate(315.12564366881116)"><path class="outline" fill="#A5ABB6" stroke="none" d="M 21.40063509461097,-12.933012701892217 L 21.90063509461097,-12.06698729810778 A 64.3597759902805 64.3597759902805 0 0 1 29.736820484268318,-15.908011433059201 L 29.358576429951547,-16.833717344984805 A 65.3597759902805 65.3597759902805 0 0 0 21.40063509461097,-12.933012701892217 Z M 75.16654310466916,-18.194801280199258 L 74.84392847364514,-17.248270879288 A 64.3597759902805 64.3597759902805 0 0 1 82.89434367870636,-13.879282471400922 L 81.55124606164941,-11.19672980816094 L 89.37748282910916,-11.192480142141346 L 84.68514050144898,-17.456019355720898 L 83.34204288439203,-14.773466692480914 A 65.3597759902805 65.3597759902805 0 0 0 75.16654310466916,-18.194801280199258"/><text text-anchor="middle" pointer-events="none" font-size="8px" fill="#000000" x="52.15420628436379" y="-18.160950458883576" font-family="sans-serif">twowheeler</text></g><g class="relationship" transform="translate(-22.28418816845193 -7.746567911958287) rotate(392.8762505789697)"><path class="outline" fill="#A5ABB6" stroke="none" d="M 24.018736134675446,-6.953439040707552 L 24.277555179777966,-5.987513214418485 A 128.7499868779014 128.7499868779014 0 0 1 32.75375131178991,-7.954295179036336 L 32.560766806461366,-8.935496983306535 A 129.7499868779014 129.7499868779014 0 0 0 24.018736134675446,-6.953439040707552 Z M 78.94974123843724,-9.606094566342307 L 78.78519989310324,-8.619724379406549 A 128.7499868779014 128.7499868779014 0 0 1 87.3147057365873,-6.8987763178277985 L 86.62233591310248,-3.9797655217656143 L 94.24112589797987,-5.769748529040232 L 88.23786550123374,-10.790790712577378 L 87.54549567774892,-7.871779916515194 A 129.7499868779014 129.7499868779014 0 0 0 78.94974123843724,-9.606094566342307"/><text text-anchor="middle" pointer-events="none" font-size="8px" fill="#000000" x="55.73226521566561" y="-7.861059738023954" font-family="sans-serif">twowheeler</text></g><g class="relationship" transform="translate(-101.46376847204654 71.08650656420284) rotate(408.70360584107226)"><path class="outline" fill="#A5ABB6" stroke="none" d="M 25 0.5 L 41.69926945163665 0.5 L 41.69926945163665 -0.5 L 25 -0.5 Z M 61.03520695163665 0.5 L 77.7344764032733 0.5 L 77.7344764032733 3.5 L 84.7344764032733 0 L 77.7344764032733 -3.5 L 77.7344764032733 -0.5 L 61.03520695163665 -0.5 Z"/><text text-anchor="middle" pointer-events="none" font-size="8px" fill="#000000" x="51.36723820163665" y="3" font-family="sans-serif">trek</text></g><g class="relationship" transform="translate(-29.0440193922157 153.53064070796643) rotate(317.65374126476553)"><path class="outline" fill="#A5ABB6" stroke="none" d="M 25 0.5 L 58.77011021557949 0.5 L 58.77011021557949 -0.5 L 25 -0.5 Z M 78.10604771557949 0.5 L 111.87615793115899 0.5 L 111.87615793115899 3.5 L 118.87615793115899 0 L 111.87615793115899 -3.5 L 111.87615793115899 -0.5 L 78.10604771557949 -0.5 Z"/><text text-anchor="middle" pointer-events="none" font-size="8px" fill="#000000" x="68.43807896557949" y="3" font-family="sans-serif">trek</text></g></g><g class="layer nodes"><g class="node" transform="translate(219.6680416253991,191.05220310899963)"><circle class="outline" cx="0" cy="0" r="25" fill="#68BDF6" stroke="#5CA8DB" stroke-width="2px"/><text text-anchor="middle" pointer-events="none" font-family="sans-serif" dy="1.5625" font-size="25" fill="#FFFFFF"/><text text-anchor="middle" pointer-events="none" y="5" font-size="10px" fill="#FFFFFF" font-family="sans-serif"> Darjeeling</text></g><g class="node" transform="translate(113.35550551033218,173.14302292665892)"><circle class="outline" cx="0" cy="0" r="25" fill="#68BDF6" stroke="#5CA8DB" stroke-width="2px"/><text text-anchor="middle" pointer-events="none" font-family="sans-serif" dy="1.5625" font-size="25" fill="#FFFFFF"/><text text-anchor="middle" pointer-events="none" y="5" font-size="10px" fill="#FFFFFF" font-family="sans-serif"> Rimbik</text></g><g class="node" transform="translate(202.09259058781083,119.54878696656193)"><circle class="outline" cx="0" cy="0" r="25" fill="#6DCE9E" stroke="#60B58B" stroke-width="2px"/><text text-anchor="middle" pointer-events="none" font-family="sans-serif" dy="1.5625" font-size="25" fill="#FFFFFF"/><text text-anchor="middle" pointer-events="none" y="5" font-size="10px" fill="#FFFFFF" font-family="sans-serif"> BhikeBh…</text></g><g class="node" transform="translate(77.29304842853291,56.61430138214731)"><circle class="outline" cx="0" cy="0" r="25" fill="#FF756E" stroke="#E06760" stroke-width="2px"/><text text-anchor="middle" pointer-events="none" font-family="sans-serif" dy="1.5625" font-size="25" fill="#FFFFFF"/><text text-anchor="middle" pointer-events="none" y="5" font-size="10px" fill="#FFFFFF" font-family="sans-serif"> Sandak…</text></g><g class="node" transform="translate(181.0361596972508,63.455871308910965)"><circle class="outline" cx="0" cy="0" r="25" fill="#6DCE9E" stroke="#60B58B" stroke-width="2px"/><text text-anchor="middle" pointer-events="none" font-family="sans-serif" dy="1.5625" font-size="25" fill="#FFFFFF"/><text text-anchor="middle" pointer-events="none" y="5" font-size="10px" fill="#FFFFFF" font-family="sans-serif"> Tumbling</text></g><g class="node" transform="translate(282.40304525317833,33.77819292969307)"><circle class="outline" cx="0" cy="0" r="25" fill="#6DCE9E" stroke="#60B58B" stroke-width="2px"/><text text-anchor="middle" pointer-events="none" font-family="sans-serif" dy="1.5625" font-size="25" fill="#FFFFFF"/><text text-anchor="middle" pointer-events="none" y="5" font-size="10px" fill="#FFFFFF" font-family="sans-serif"> Gairibus</text></g><g class="node" transform="translate(7.840805605910428,100.62037147968252)"><circle class="outline" cx="0" cy="0" r="25" fill="#6DCE9E" stroke="#60B58B" stroke-width="2px"/><text text-anchor="middle" pointer-events="none" font-family="sans-serif" dy="1.5625" font-size="25" fill="#FFFFFF"/><text text-anchor="middle" pointer-events="none" y="5" font-size="10px" fill="#FFFFFF" font-family="sans-serif"> Sirikhola</text></g><g class="node" transform="translate(-22.28418816845193,-7.746567911958287)"><circle class="outline" cx="0" cy="0" r="25" fill="#6DCE9E" stroke="#60B58B" stroke-width="2px"/><text text-anchor="middle" pointer-events="none" font-family="sans-serif" dy="1.5625" font-size="25" fill="#FFFFFF"/><text text-anchor="middle" pointer-events="none" y="5" font-size="10px" fill="#FFFFFF" font-family="sans-serif"> Gurdum</text></g><g class="node" transform="translate(-101.46376847204654,71.08650656420284)"><circle class="outline" cx="0" cy="0" r="25" fill="#6DCE9E" stroke="#60B58B" stroke-width="2px"/><text text-anchor="middle" pointer-events="none" font-family="sans-serif" dy="1.5625" font-size="25" fill="#FFFFFF"/><text text-anchor="middle" pointer-events="none" y="5" font-size="10px" fill="#FFFFFF" font-family="sans-serif"> Rammam</text></g><g class="node" transform="translate(-29.0440193922157,153.53064070796643)"><circle class="outline" cx="0" cy="0" r="25" fill="#FF756E" stroke="#E06760" stroke-width="2px"/><text text-anchor="middle" pointer-events="none" font-family="sans-serif" dy="1.5625" font-size="25" fill="#FFFFFF"/><text text-anchor="middle" pointer-events="none" y="5" font-size="10px" fill="#FFFFFF" font-family="sans-serif"> Sabargr…</text></g></g></svg>