<svg xmlns="http://www.w3.org/2000/svg" width="238.6533966064453" height="228.76007080078125" viewBox="-25.676149368286133 -15.26208782196045 238.6533966064453 228.76007080078125"><title>Neo4j Graph Visualization</title><desc>Created using Neo4j (http://www.neo4j.com/)</desc><g class="layer relationships"><g class="relationship" transform="translate(167.622365942616 184.49798849807996) rotate(278.89450545537727)"><path class="outline" fill="#A5ABB6" stroke="none" d="M 21.40063509461097,12.933012701892217 L 21.90063509461097,12.06698729810778 A 58.20432094312871 58.20432094312871 0 0 0 39.66914833661689,18.75077096297477 L 39.4744265866521,19.731629484929208 A 59.20432094312871 59.20432094312871 0 0 1 21.40063509461097,12.933012701892217 Z M 58.87752268972157,20.338844598139204 L 58.7445133586778,19.347729812730726 A 58.20432094312871 58.20432094312871 0 0 0 76.89618248003347,13.788059407130756 L 75.56157089995035,11.10127472459514 L 83.38778200263044,11.121763167359394 L 78.67566458681098,17.370438983844913 L 77.34105300672786,14.683654301309296 A 59.20432094312871 59.20432094312871 0 0 1 58.87752268972157,20.338844598139204"/><text text-anchor="middle" pointer-events="none" font-size="8px" fill="#000000" x="49.1665572528104" y="23.33616241299378" font-family="sans-serif">trek</text></g><g class="relationship" transform="translate(183.9772459138429 79.99234241895375) rotate(218.98040439292248)"><path class="outline" fill="#A5ABB6" stroke="none" d="M 25 0.5 L 39.4939418716425 0.5 L 39.4939418716425 -0.5 L 25 -0.5 Z M 58.8298793716425 0.5 L 73.323821243285 0.5 L 73.323821243285 3.5 L 80.323821243285 0 L 73.323821243285 -3.5 L 73.323821243285 -0.5 L 58.8298793716425 -0.5 Z"/><text text-anchor="middle" pointer-events="none" font-size="8px" fill="#000000" x="49.1619106216425" y="3" transform="rotate(180 49.1619106216425 0)" font-family="sans-serif">trek</text></g><g class="relationship" transform="translate(102.10259926529359 13.737911944738325) rotate(519.1010070883501)"><path class="outline" fill="#A5ABB6" stroke="none" d="M 25 0.5 L 39.6995179053447 0.5 L 39.6995179053447 -0.5 L 25 -0.5 Z M 59.0354554053447 0.5 L 73.7349733106894 0.5 L 73.7349733106894 3.5 L 80.7349733106894 0 L 73.7349733106894 -3.5 L 73.7349733106894 -0.5 L 59.0354554053447 -0.5 Z"/><text text-anchor="middle" pointer-events="none" font-size="8px" fill="#000000" x="49.3674866553447" y="3" transform="rotate(180 49.3674866553447 0)" font-family="sans-serif">trek</text></g><g class="relationship" transform="translate(167.622365942616 184.49798849807996) rotate(278.89450545537727)"><path class="outline" fill="#A5ABB6" stroke="none" d="M 25 0.5 L 38.382967803546954 0.5 L 38.382967803546954 -0.5 L 25 -0.5 Z M 60.394686553546954 0.5 L 73.77765435709391 0.5 L 73.77765435709391 3.5 L 80.77765435709391 0 L 73.77765435709391 -3.5 L 73.77765435709391 -0.5 L 60.394686553546954 -0.5 Z"/><text text-anchor="middle" pointer-events="none" font-size="8px" fill="#000000" x="49.388827178546954" y="3" font-family="sans-serif">road</text></g><g class="relationship" transform="translate(167.622365942616 184.49798849807996) rotate(278.89450545537727)"><path class="outline" fill="#A5ABB6" stroke="none" d="M 21.40063509461097,-12.933012701892217 L 21.90063509461097,-12.06698729810778 A 58.20432094312871 58.20432094312871 0 0 1 22.703030879587587,-12.521812264343843 L 22.216816725242598,-13.395651949935306 A 59.20432094312871 59.20432094312871 0 0 0 21.40063509461097,-12.933012701892217 Z M 76.49754045423812,-15.09435382870447 L 76.0669174104817,-14.191821948832107 A 58.20432094312871 58.20432094312871 0 0 1 76.89618248003347,-13.788059407130756 L 75.56157089995035,-11.10127472459514 L 83.38778200263044,-11.121763167359394 L 78.67566458681098,-17.370438983844913 L 77.34105300672786,-14.683654301309296 A 59.20432094312871 59.20432094312871 0 0 0 76.49754045423812,-15.09435382870447"/><text text-anchor="middle" pointer-events="none" font-size="8px" fill="#000000" x="49.166557252810385" y="-17.336162412993772" font-family="sans-serif">PublicTrans…</text></g></g><g class="layer nodes"><g class="node" transform="translate(167.622365942616,184.49798849807996)"><circle class="outline" cx="0" cy="0" r="25" fill="#68BDF6" stroke="#5CA8DB" stroke-width="2px"/><text text-anchor="middle" pointer-events="none" font-family="sans-serif" dy="1.5625" font-size="25" fill="#FFFFFF"/><text text-anchor="middle" pointer-events="none" y="5" font-size="10px" fill="#FFFFFF" font-family="sans-serif"> Darjeeling</text></g><g class="node" transform="translate(183.9772459138429,79.99234241895375)"><circle class="outline" cx="0" cy="0" r="25" fill="#68BDF6" stroke="#5CA8DB" stroke-width="2px"/><text text-anchor="middle" pointer-events="none" font-family="sans-serif" dy="1.5625" font-size="25" fill="#FFFFFF"/><text text-anchor="middle" pointer-events="none" y="5" font-size="10px" fill="#FFFFFF" font-family="sans-serif"> Rimbik</text></g><g class="node" transform="translate(102.10259926529359,13.737911944738325)"><circle class="outline" cx="0" cy="0" r="25" fill="#6DCE9E" stroke="#60B58B" stroke-width="2px"/><text text-anchor="middle" pointer-events="none" font-family="sans-serif" dy="1.5625" font-size="25" fill="#FFFFFF"/><text text-anchor="middle" pointer-events="none" y="5" font-size="10px" fill="#FFFFFF" font-family="sans-serif"> BhikeBh…</text></g><g class="node" transform="translate(3.323851122341061,51.45585855273052)"><circle class="outline" cx="0" cy="0" r="25" fill="#FF756E" stroke="#E06760" stroke-width="2px"/><text text-anchor="middle" pointer-events="none" font-family="sans-serif" dy="1.5625" font-size="25" fill="#FFFFFF"/><text text-anchor="middle" pointer-events="none" y="5" font-size="10px" fill="#FFFFFF" font-family="sans-serif"> Sandak…</text></g></g></svg>